<?xml version="1.0" encoding="UTF-8"?>
<svg width="1000px" height="1000px" viewBox="0 0 1000 1000" version="1.1" xmlns="http://www.w3.org/2000/svg" xmlns:xlink="http://www.w3.org/1999/xlink">
    <title>Ecma Nodejs</title>
    <g id="Ecma-Nodejs" stroke="none" stroke-width="1" fill="none" fill-rule="evenodd">
        <rect fill="#00FF88" x="0" y="0" width="1000" height="1000"></rect>
        <g id="icon-black" transform="translate(114, 243)" fill="#000000" fill-rule="nonzero">
            <path d="M431.760007,514 L717.029998,514 C726.13289,514 734.846644,510.801445 742.729392,506.290009 C750.613957,501.778573 758.74037,496.114276 763.289997,488.298818 C767.839624,480.485179 771,471.618689 771,462.597636 C771,453.574765 767.846898,444.711912 763.289997,436.901909 L570.540003,105.370482 C565.990376,97.5568425 560.431539,91.8907265 552.55061,87.3792908 C544.667862,82.8696735 533.381077,79.6692999 524.280004,79.6692999 C515.178931,79.6692999 506.46154,82.8696735 498.580611,87.3792908 C490.697864,91.8907265 485.139027,97.5568425 480.589399,105.370482 L431.760007,190.180382 L334.099404,25.6939084 C329.54614,17.8820874 323.994576,9.65021739 316.11001,5.14060007 C308.225445,0.629164352 299.513509,0 290.410617,0 C281.307726,0 272.593972,0.629164352 264.709406,5.14060007 C256.826658,9.65021739 248.703883,17.8820874 244.150619,25.6939084 L5.1400804,436.901909 C0.583361431,444.711912 0,453.574765 0,462.597636 C0,471.618689 0.590271337,480.48336 5.1400804,488.298818 C9.68988946,496.112457 17.8164838,501.778573 25.6999586,506.290009 C33.5836152,510.801445 42.2964604,514 51.400079,514 L231.300013,514 C302.582961,514 354.467259,482.02354 390.640614,421.480109 L478.020006,269.849682 L524.280004,190.180382 L665.629394,431.759491 L478.020006,431.759491 L431.760007,514 Z M228.730619,431.759491 L102.799411,431.759491 L290.410617,107.939873 L385.500008,269.849682 L322.512583,379.65159 C298.49157,418.934357 271.102887,431.759491 228.730619,431.759491 Z" id="Shape"></path>
        </g>
    </g>
</svg>