<?xml version="1.0" encoding="UTF-8"?>
<svg width="1000px" height="1000px" viewBox="0 0 1000 1000" version="1.1" xmlns="http://www.w3.org/2000/svg" xmlns:xlink="http://www.w3.org/1999/xlink">
    <title>Ecma Nodejs</title>
    <g id="Ecma-Nodejs" stroke="none" stroke-width="1" fill="none" fill-rule="evenodd">
        <rect fill="#00FF88" x="0" y="0" width="1000" height="1000"></rect>
        <g id="Nextjs-logo" transform="translate(113, 422)" fill="#000000">
            <polygon id="Path" fill-rule="nonzero" points="514 0 649 0 649 24.9166839 595.446931 24.9166839 595.446931 156 568.66843 156 568.66843 24.9166839 514 24.9166839"></polygon>
            <polygon id="Path" fill-rule="nonzero" points="293 0 293 24.9166839 184.788061 24.9166839 184.788061 64.9999827 271.811981 64.9999827 271.811981 89.916612 184.788061 89.916612 184.788061 131.083371 293 131.083371 293 156 158.011213 156 158.011213 24.9166839 158 24.9166839 158 0"></polygon>
            <polygon id="Path" fill-rule="nonzero" points="359.898619 0 325 0 449.99951 156 485 156 422.492409 78.0536531 484.900088 0.119018084 449.99951 0.173171397 405.019591 56.2650588"></polygon>
            <polygon id="Path" fill-rule="nonzero" points="396 111.652526 378.476387 90 325 156 360.092406 156"></polygon>
            <polygon id="Path" points="159 156 33.4384034 0 0 0 0 155.934917 26.750762 155.934917 26.750762 33.3310175 125.39416 156"></polygon>
            <path d="M655.009881,155 C653.072391,155 651.424457,154.316315 650.0447,152.948747 C648.664943,151.581179 647.982838,149.925525 648.000328,147.964162 C647.982838,146.056656 648.664943,144.419019 650.0447,143.051451 C651.424457,141.683883 653.072391,141 655.009881,141 C656.873524,141 658.503969,141.683883 659.883725,143.051451 C661.282915,144.419019 661.980567,146.056656 662,147.964162 C661.980567,149.259659 661.657976,150.447248 661.012794,151.50891 C660.350122,152.588788 659.508665,153.434633 658.449556,154.046445 C657.40988,154.676274 656.263321,155 655.009881,155 Z" id="Path" fill-rule="nonzero"></path>
            <path d="M701.062762,89 L713,89 L713,134.772183 C712.982189,138.97886 712.067898,142.576929 710.280875,145.602239 C708.474061,148.627351 705.972624,150.936316 702.760731,152.565374 C699.566649,154.176312 695.824389,155 691.57155,155 C687.682844,155 684.197851,154.301776 681.094803,152.941371 C677.991754,151.580967 675.527918,149.540262 673.721104,146.855103 C671.894501,144.169944 671,140.822604 671,136.812888 L682.957028,136.812888 C682.974839,138.567213 683.376573,140.088534 684.14244,141.359518 C684.908307,142.630503 685.967064,143.596987 687.318711,144.277287 C688.68619,144.957588 690.257504,145.297738 692.026716,145.297738 C693.944353,145.297738 695.58691,144.903818 696.918767,144.09825 C698.250624,143.310606 699.27376,142.129239 699.986194,140.553951 C700.678839,138.996783 701.044951,137.063421 701.062762,134.772183 L701.062762,89 Z" id="Path" fill-rule="nonzero"></path>
            <path d="M761.500622,106.787194 C761.209385,104.011226 759.929532,101.844171 757.700684,100.303959 C755.452024,98.7458147 752.547588,97.9757088 748.983412,97.9757088 C746.481159,97.9757088 744.325616,98.3518941 742.534613,99.0861353 C740.74361,99.8383088 739.35479,100.841141 738.403815,102.112762 C737.454821,103.384382 736.979333,104.835129 736.941691,106.465003 C736.941691,107.826088 737.270569,109.008047 737.910496,109.993144 C738.550423,110.995976 739.408282,111.837812 740.523697,112.518453 C741.619299,113.216829 742.84368,113.789876 744.179007,114.255526 C745.530184,114.721176 746.883342,115.115294 748.234519,115.437682 L754.465387,116.959962 C756.969622,117.533009 759.400552,118.303312 761.720535,119.288212 C764.040517,120.255376 766.142569,121.491132 767.987064,122.977547 C769.833541,124.464159 771.295665,126.255029 772.373436,128.350553 C773.451208,130.445879 774,132.899459 774,135.729224 C774,139.543888 773.013363,142.8931 771.020278,145.794397 C769.029174,148.677762 766.160399,150.934479 762.396123,152.564353 C758.649678,154.176294 754.118678,155 748.783311,155 C743.630215,155 739.134877,154.212159 735.35277,152.636082 C731.552832,151.077938 728.590941,148.785356 726.453228,145.776465 C724.315515,142.767771 723.164439,139.096171 723,134.779991 L734.841621,134.779991 C735.00606,137.036512 735.737122,138.917241 736.979333,140.439521 C738.239375,141.943868 739.88377,143.054294 741.894686,143.806468 C743.923433,144.540709 746.187942,144.916894 748.692176,144.916894 C751.305376,144.916894 753.607529,144.522776 755.598633,143.752671 C757.571906,142.982565 759.125165,141.9082 760.24058,140.51125 C761.373825,139.132035 761.940448,137.502359 761.958278,135.639759 C761.940448,133.938353 761.427317,132.523274 760.440681,131.412847 C759.436213,130.302618 758.047393,129.371318 756.274221,128.619144 C754.485199,127.866971 752.400979,127.186329 750.025522,126.59535 L742.461308,124.696885 C736.997164,123.317868 732.666265,121.222541 729.504273,118.410709 C726.326432,115.598876 724.75336,111.873676 724.75336,107.199244 C724.75336,103.366647 725.813301,99.9997 727.952995,97.1161382 C730.070896,94.2327735 732.977313,91.9939882 736.650455,90.3999794 C740.341426,88.7882353 744.507886,88 749.147852,88 C753.863103,88 757.99192,88.7882353 761.556095,90.3999794 C765.118289,91.9939882 767.915741,94.2148412 769.942506,97.0444088 C771.971253,99.8741735 773.031194,103.115791 773.086668,106.787194 L761.500622,106.787194 Z" id="Path" fill-rule="nonzero"></path>
        </g>
    </g>
</svg>