<?xml version="1.0" encoding="UTF-8"?>
<svg width="1000px" height="1000px" viewBox="0 0 1000 1000" version="1.1" xmlns="http://www.w3.org/2000/svg" xmlns:xlink="http://www.w3.org/1999/xlink">
    <title>Ecma Nodejs</title>
    <g id="Ecma-Nodejs" stroke="none" stroke-width="1" fill="none" fill-rule="evenodd">
        <rect fill="#00FF88" x="0" y="0" width="1000" height="1000"></rect>
        <g id="node-js" transform="translate(130, 83)" fill="#000000" fill-rule="nonzero">
            <path d="M370,834 C358.509315,834 347.784677,830.935227 337.826083,825.571885 L235.942029,765.042716 C220.621114,756.614604 228.281575,753.549834 232.877843,752.017449 C253.561075,745.121728 257.391302,743.589337 278.840582,731.330264 C281.138713,729.797882 284.202898,730.564076 286.501036,732.096458 L364.63768,778.834171 C367.701866,780.366556 371.532092,780.366556 373.830231,778.834171 L679.482401,601.843823 C682.546588,600.311432 684.078677,597.246669 684.078677,593.415708 L684.078677,240.201196 C684.078677,236.37023 682.546588,233.305465 679.482401,231.773083 L373.830231,55.5489202 C370.766045,54.016538 366.935819,54.016538 364.63768,55.5489202 L58.9855023,231.773083 C55.9213233,233.305465 54.3892337,237.136424 54.3892337,240.201196 L54.3892337,593.415708 C54.3892337,596.480475 55.9213233,600.311432 58.9855023,601.843823 L142.48447,650.113919 C187.68116,673.099674 216.024846,646.282958 216.024846,619.466236 L216.024846,270.848871 C216.024846,266.251723 219.855073,261.65457 225.217389,261.65457 L264.285715,261.65457 C268.88199,261.65457 273.478258,265.485529 273.478258,270.848871 L273.478258,619.466236 C273.478258,679.995404 240.538304,715.240233 183.084885,715.240233 C165.465839,715.240233 151.67702,715.240233 112.608695,696.085435 L32.1739128,650.113919 C12.2567293,638.621034 0,617.16766 0,594.181896 L0,240.967384 C0,217.981628 12.2567293,196.528248 32.1739128,185.03537 L337.826083,8.0450126 C356.977226,-2.68167087 383.022774,-2.68167087 402.173917,8.0450126 L707.826086,185.03537 C727.74327,196.528248 740,217.981628 740,240.967384 L740,594.181896 C740,617.16766 727.74327,638.621034 707.826086,650.113919 L402.173917,827.104267 C392.215317,831.701421 380.724638,834 370,834 Z M464.223605,591.117132 C330.165629,591.117132 302.587992,529.82177 302.587992,477.720713 C302.587992,473.123562 306.41822,468.526413 311.780535,468.526413 L351.614908,468.526413 C356.211178,468.526413 360.041404,471.591177 360.041404,476.188331 C366.169769,516.796508 383.788822,536.7175 464.989646,536.7175 C529.337476,536.7175 556.915114,522.159851 556.915114,487.681211 C556.915114,467.760219 549.25466,453.20257 448.902688,443.242073 C365.403727,434.813961 313.312632,416.425351 313.312632,349.766649 C313.312632,287.705097 365.403727,250.927879 452.732922,250.927879 C550.786749,250.927879 599.047618,284.640332 605.175983,358.194761 C605.175983,360.493337 604.409936,362.791916 602.877847,365.090492 C601.345758,366.622874 599.047618,368.155256 596.749482,368.155256 L556.915114,368.155256 C553.084889,368.155256 549.25466,365.090492 548.488613,361.259531 C539.29607,319.118972 515.548652,305.327511 452.732922,305.327511 C382.256727,305.327511 373.830231,329.845657 373.830231,348.234264 C373.830231,370.453834 383.788822,377.349565 478.778471,389.608638 C573.002072,401.867708 617.432713,419.490124 617.432713,485.382632 C616.666666,552.807531 561.51139,591.117132 464.223605,591.117132 L464.223605,591.117132 Z" id="Shape"></path>
        </g>
    </g>
</svg>