<?xml version="1.0" encoding="UTF-8"?>
<svg width="1000px" height="1000px" viewBox="0 0 1000 1000" version="1.1" xmlns="http://www.w3.org/2000/svg" xmlns:xlink="http://www.w3.org/1999/xlink">
    <title>Ecma Nodejs</title>
    <g id="Ecma-Nodejs" stroke="none" stroke-width="1" fill="none" fill-rule="evenodd">
        <rect fill="#00FF88" x="0" y="0" width="1000" height="1000"></rect>
        <g id="NestJS" transform="translate(89, 90)" fill="#000000">
            <path d="M484.591847,0 C478.640726,0 473.11469,1.27563789 468.013673,2.97639629 C478.853203,10.2047774 484.804356,19.7718428 487.780015,30.6144145 C487.99315,32.1025913 488.417643,33.1656442 488.630448,34.6537716 C488.843582,35.9294095 489.05527,37.2050014 489.05527,38.4806327 C489.905834,57.1893864 484.166729,59.5279818 480.128523,70.5831878 C473.964794,84.8274441 475.665067,100.134625 483.10405,112.465459 C483.74171,113.953596 484.591847,115.654397 485.654625,117.142617 C477.577948,63.3548001 522.424226,55.275997 530.713214,38.4806327 C531.350841,23.8112 519.236057,14.0315957 509.671749,7.22838771 C500.532492,1.70080446 492.243274,0 484.591847,0 L484.591847,0 Z M552.179896,12.1182063 C551.329398,17.0079953 551.96709,15.7323969 551.755173,18.2836233 C551.542367,19.984385 551.542367,22.1104383 551.330417,23.8112 C550.905661,25.5120077 550.479853,27.2127694 549.842555,28.9136528 C549.417832,30.6144145 548.779876,32.315219 548.142281,34.0159774 C547.291717,35.7168641 546.654485,37.2050014 545.804315,38.9058025 C545.166721,39.7565535 544.741636,40.6065642 544.104009,41.457029 C543.679253,42.0948232 543.253511,42.7326208 542.828788,43.3704151 C541.766109,44.8586741 540.703331,46.3468114 539.640685,47.6223999 C538.365365,48.8980378 537.302686,50.3861718 535.814823,51.4492609 L535.814823,51.6621255 C534.539602,52.7251324 533.264348,54.0007243 531.776617,55.0636917 C527.313227,58.4652545 522.212308,61.0164777 517.536343,64.2054984 C516.048645,65.2684658 514.56075,66.1189338 513.285561,67.3945191 C511.797798,68.4574865 510.522511,69.5204539 509.247322,70.7960853 C507.75946,72.0716771 506.696781,73.3473084 505.421493,74.8355246 C504.358814,76.1111592 503.083593,77.5993031 502.233456,79.0875588 C501.170679,80.5756928 500.108033,82.0639156 499.257797,83.5520891 C498.407332,85.2528475 497.770034,86.7411065 496.919864,88.4418715 C496.28227,90.1426299 495.644577,91.6308955 495.219558,93.3316506 C494.581931,95.2450828 494.156846,96.9458872 493.731761,98.6467312 C493.518956,99.4974756 493.518956,100.560078 493.307005,101.4105 C493.093871,102.261247 493.093871,103.111261 492.882282,103.961726 C492.882282,105.662485 492.669477,107.575917 492.669477,109.276678 C492.669477,110.55231 492.669477,111.827898 492.882282,113.103533 C492.882282,114.804298 493.095088,116.505063 493.519877,118.418488 C493.732682,120.119247 494.157438,121.820051 494.582654,123.520938 C495.220281,125.221696 495.645366,126.922501 496.282928,128.623263 C496.707749,129.686355 497.345607,130.749319 497.77079,131.599659 L448.886306,112.678268 C440.597153,110.339669 432.520674,108.213737 424.231521,106.300305 C419.768197,105.237341 415.304873,104.174298 410.841483,103.111288 C398.088973,100.560104 385.124085,98.6467542 372.159033,97.3711657 C371.73431,97.3711657 371.521439,97.1582682 371.096354,97.1582682 C358.343811,95.8826796 345.803975,95.2448821 333.051531,95.2448821 C323.699667,95.2448821 314.347802,95.6697262 305.208542,96.3078495 C292.243529,97.1585972 279.278497,98.8590726 266.313573,100.985004 C263.125431,101.409891 259.937295,102.048093 256.749149,102.685894 C250.160405,103.9614 243.784225,105.449659 237.620526,106.937876 C234.43239,107.788623 231.244248,108.63868 228.056109,109.489023 C224.868072,110.764608 221.892511,112.252874 218.916846,113.528463 C216.578909,114.59143 214.240983,115.654434 211.903043,116.717483 C211.47829,116.930381 211.052544,116.930381 210.840364,117.14237 C208.714907,118.205334 206.802026,119.055674 204.88924,120.11876 C204.251609,120.331657 203.826455,120.543607 203.401407,120.756561 C201.063473,121.819531 198.725547,123.09512 196.812655,124.158124 C195.324826,124.795921 193.837095,125.646343 192.561844,126.28418 C191.92421,126.709024 191.074005,127.134888 190.648956,127.347148 C188.736078,128.410115 186.823193,129.473076 185.122884,130.536168 C183.209999,131.599132 181.50969,132.6621 180.02186,133.725067 C178.534136,134.788156 177.04631,135.638496 175.771045,136.70146 C175.558108,136.914358 175.346293,136.914358 175.133415,137.126351 C173.858164,137.977095 172.370433,139.039733 171.095182,140.102822 C171.095182,140.102822 170.882278,140.315687 170.670426,140.527703 C169.607747,141.378451 168.544963,142.228471 167.482287,143.078811 C167.057538,143.291708 166.631786,143.716605 166.207033,143.929555 C165.144354,144.780309 164.081675,145.842987 163.018993,146.693406 C162.806089,147.11829 162.381369,147.331204 162.168491,147.544157 C160.893237,148.819749 159.617979,149.882713 158.342725,151.158348 C158.129821,151.158348 158.129821,151.371245 157.917972,151.583192 C156.642718,152.646199 155.367467,153.921794 154.092213,155.197425 C153.879309,155.410323 153.879309,155.622266 153.667457,155.622266 C152.604778,156.685237 151.542099,157.748323 150.479318,159.023829 C150.054572,159.448712 149.416639,159.874583 148.99159,160.299421 C147.928911,161.575055 146.653654,162.850647 145.378403,164.126282 C145.165499,164.551129 144.740776,164.764079 144.527898,165.189246 C142.827585,166.890133 141.339755,168.590894 139.639449,170.291695 C139.426545,170.504593 139.2147,170.71653 139.001826,170.929493 C135.601111,174.54368 131.987917,178.157871 128.16225,181.346868 C124.33649,184.748425 120.298241,187.937445 116.259906,190.70123 C112.009085,193.677716 107.970845,196.228833 103.507452,198.78005 C99.2566308,201.118567 94.7932408,203.244646 90.1173742,205.158091 C85.6539777,207.071471 80.9781144,208.772315 76.302238,210.260426 C67.3754547,212.173805 58.2361883,215.788029 50.3721828,216.425833 C48.6718767,216.425833 46.7589919,216.85074 45.0586825,217.063604 C43.1458077,217.488478 41.4454982,217.914372 39.7451921,218.339278 C38.0448827,218.977017 36.3444778,219.614854 34.6441651,220.252625 C32.9438557,220.890429 31.2435495,221.740867 29.5432401,222.591273 C28.0554106,223.654214 26.3551077,224.504653 24.8672716,225.567627 C23.3795341,226.630601 21.8917046,227.906176 20.616447,229.181817 C19.1287194,230.24489 17.6408899,231.733067 16.3656323,233.008609 C15.0903747,234.496917 13.8151238,235.772493 12.7524434,237.260604 C11.6897641,238.961382 10.4145075,240.449657 9.56430248,242.150468 C8.50162348,243.638711 7.4389448,245.339456 6.58873976,247.040169 C5.7382364,248.95368 4.88843427,250.654425 4.25080417,252.56787 C3.61317736,254.268648 2.97555023,256.182028 2.33792309,258.095473 C1.91317316,259.796218 1.48742038,261.497029 1.27524474,263.197742 C1.27524474,263.410935 1.06237674,263.622681 1.06237674,263.835579 C0.63762352,265.74909 0.63762352,268.300339 0.424746967,269.575981 C0.211878966,271.064125 0,272.339667 0,273.827942 C0,274.678677 0,275.741256 0.212868002,276.591662 C0.425736003,278.079937 0.637614311,279.355513 1.06337104,280.63122 C1.48812096,281.90663 1.9138744,283.182272 2.55110224,284.457913 L2.55110224,284.670777 C3.18872905,285.946484 4.03893376,287.222027 4.88903815,288.497635 C5.73954119,289.773243 6.58944429,291.048852 7.65212329,292.324493 C8.71480197,293.387467 9.99005954,294.662976 11.2653122,295.726016 C12.5405694,297.001624 13.8158276,298.064598 15.3035552,299.127572 C20.4045756,303.592234 21.6798299,305.080477 28.2685943,308.482 C29.3312635,309.119837 30.394051,309.54504 31.6693053,310.182844 C31.8822095,310.182844 32.0940578,310.395709 32.3069291,310.395709 C32.3069291,310.82055 32.3069291,311.033546 32.5198333,311.458814 C32.7327046,313.159625 33.1574572,314.860338 33.5825123,316.561182 C34.0072616,318.474594 34.6452933,320.175438 35.2829204,321.663582 C35.9205476,322.939223 36.3455994,324.214766 36.9832299,325.49044 C37.1961012,325.915346 37.4079857,326.341174 37.620857,326.553414 C38.4713587,328.254159 39.3211631,329.7425 40.1712669,331.230578 C41.2340478,332.718755 42.2967236,334.206932 43.3593993,335.69524 C44.4220849,336.970783 45.6973424,338.458992 46.9725934,339.734568 C48.247851,341.010209 49.5231086,342.073216 51.0109414,343.348725 C51.0109414,343.348725 51.2238456,343.561919 51.4356874,343.561919 C52.7109482,344.624992 53.9861959,345.687999 55.2614568,346.538272 C56.7491877,347.601312 58.2370172,348.451652 59.9373201,349.302123 C61.4251529,350.152858 63.1254623,351.002901 64.8257685,351.640739 C66.101026,352.278543 67.5887536,352.703778 69.0765898,353.128948 C69.2894939,353.342142 69.501339,353.342142 69.9270948,353.553888 C70.7775965,353.767081 71.8398709,353.978696 72.6900766,354.191626 C72.0524528,365.672002 71.8395716,376.514574 73.5405849,380.341464 C75.4533677,384.593426 84.8052028,371.624841 94.1570444,356.742876 C92.8817934,371.412272 92.0315845,388.632754 94.1570444,393.735285 C96.4949744,399.050155 109.247428,382.467379 120.29957,364.183792 C270.991071,329.317528 408.50526,433.491447 422.957977,580.610583 C420.194927,557.649765 391.926987,544.893814 378.962067,548.082868 C372.585762,563.815205 361.7462,584.012172 344.317889,596.555587 C345.805653,582.523962 345.168322,568.067233 342.192498,554.035575 C337.516533,573.594803 328.377244,591.878489 315.837276,607.610826 C295.645891,609.09897 275.454457,599.31934 264.827368,584.650042 C263.976863,584.012172 263.764686,582.736596 263.127059,581.886224 C262.489425,580.397883 261.851808,578.909837 261.426749,577.421562 C260.789125,575.933418 260.364073,574.445176 260.151498,572.957032 C259.938594,571.468756 259.938594,569.980579 259.938594,568.279834 C259.938594,567.216761 259.938594,566.15382 259.938594,565.090879 C260.151498,563.602538 260.576221,562.114361 261.001276,560.626152 C261.426026,559.138008 261.851775,557.649765 262.489106,556.161556 C263.339611,554.673445 263.976837,553.185202 265.039618,551.697058 C268.652805,541.492126 268.652805,533.200804 262.064057,528.311038 C260.7888,527.460303 259.513545,526.822762 258.025716,526.184958 C257.175204,525.972094 256.112828,525.547154 255.262731,525.334257 C254.6251,525.121392 254.200052,524.909317 253.562421,524.69642 C252.074588,524.271546 250.586756,523.845652 249.099025,523.633446 C247.611195,523.208605 246.123464,522.995641 244.635635,522.995641 C243.147901,522.782448 241.447489,522.570768 239.959762,522.570768 C238.897086,522.570768 237.834305,522.783632 236.771623,522.783632 C235.07132,522.783632 233.58349,522.996826 232.095753,523.421436 C230.607923,523.63463 229.120196,523.846277 227.632366,524.272105 C226.144629,524.697012 224.656796,525.122873 223.168966,525.760446 C221.681239,526.398218 220.405978,527.036022 218.918155,527.673826 C217.642999,528.311663 216.367738,529.16197 214.879912,529.799774 C165.35783,562.114953 194.901077,637.800551 228.695048,659.698362 C215.942588,662.036944 202.977661,664.800861 199.364466,667.564547 C199.151562,667.777412 198.939717,667.989454 198.939717,667.989454 C208.07898,673.516991 217.643302,678.194221 227.632662,682.233582 C241.235325,686.698211 255.688079,690.737604 262.064353,692.438448 L262.064353,692.651313 C279.705252,696.265536 297.558733,697.541144 315.624701,696.47817 C409.780416,689.88756 486.932806,618.24129 500.960537,523.846935 C501.385293,525.760381 501.811036,527.461093 502.235792,529.374571 C502.873452,533.201264 503.723523,537.240691 504.148574,541.280084 L504.148574,541.493278 C504.57333,543.40669 504.786202,545.32007 504.999073,547.020848 L504.999073,547.871615 C505.212207,549.784995 505.423862,551.69844 505.423862,553.399185 C505.636667,555.7378 505.848617,558.07635 505.848617,560.415064 L505.848617,563.81662 C505.848617,564.879693 506.061423,566.155169 506.061423,567.218242 C506.061423,568.493883 505.848617,569.769393 505.848617,571.045001 L505.848617,574.021387 C505.848617,575.509663 505.635483,576.785205 505.635483,578.273415 C505.635483,579.124084 505.635483,579.974226 505.422677,581.037233 C505.422677,582.525508 505.209872,584.013587 505.209872,585.714398 C504.996738,586.352202 504.996738,586.990006 504.996738,587.627843 C504.783932,589.328654 504.571982,590.816864 504.359078,592.517675 C504.359078,593.155512 504.359078,593.79325 504.146272,594.43112 C503.933138,596.557035 503.508678,598.470513 503.295872,600.596428 L503.295872,600.809622 L503.295872,601.022487 C502.871116,602.935866 502.445308,605.061847 502.020519,606.975227 L502.020519,607.613064 C501.595829,609.52641 501.170021,611.439888 500.745331,613.353202 C500.745331,613.566396 500.532525,613.991039 500.532525,614.203871 C500.107704,616.117349 499.681961,618.030729 499.044794,619.94424 L499.044794,620.581978 C498.407167,622.707893 497.769507,624.621338 497.34439,626.534751 C497.131584,626.747615 497.131584,626.959625 497.131584,626.959625 C496.493924,629.085671 495.856363,631.211619 495.218801,633.3376 C494.368303,635.463647 493.731005,637.377026 492.880868,639.50304 C492.030403,641.629054 491.393006,643.755068 490.542869,645.668415 C489.692338,647.794494 488.842497,649.707907 487.992393,651.833822 L487.779259,651.833822 C486.928695,653.747201 486.078821,655.873281 485.016076,657.786726 C484.803271,658.424432 484.591386,658.8497 484.378515,659.274804 C484.16571,659.487998 484.16571,659.699678 483.953759,659.912674 C470.138636,687.763192 449.734601,712.212186 424.229778,731.346244 C422.529472,732.409218 420.8291,733.68486 419.128827,734.960402 C418.704038,735.385309 418.066049,735.598272 417.640997,736.023376 C416.153168,737.086383 414.665404,738.149324 412.965164,739.21243 L413.602758,740.488038 L413.815563,740.488038 C416.791091,740.063197 419.766684,739.637303 422.742278,739.21243 L422.955083,739.21243 C428.481185,738.361695 434.007254,737.299017 439.533356,736.236043 C441.021054,736.02285 442.721491,735.598272 444.209189,735.17297 C445.271868,734.959777 446.122071,734.74813 447.18475,734.535166 C448.672579,734.321973 450.160343,733.897362 451.648206,733.684465 C452.923394,733.259591 454.198681,733.046595 455.473903,732.621458 C476.727976,727.518992 497.344521,720.503146 517.110699,712.211824 C483.31679,758.345962 438.045493,795.551006 385.122803,820 C409.565078,818.299189 434.007254,814.259829 457.599294,807.45665 C543.253346,782.157119 615.304687,724.542605 658.450494,646.943595 C649.736322,696.054251 630.182555,742.826225 601.277021,783.64546 C621.893468,770.038939 640.809608,754.306568 658.025442,736.448184 C705.634606,686.699823 736.878204,623.557706 747.505159,555.738162 C754.7316,589.328983 756.857023,623.982909 753.668888,658.211435 C907.123499,444.123227 766.421332,222.168834 707.54752,163.703846 C707.334386,163.278995 707.122764,163.066048 707.122764,162.640875 C706.90963,162.85374 706.90963,162.85374 706.90963,163.065762 C706.90963,162.852865 706.90963,162.852865 706.696824,162.640875 C706.696824,165.192098 706.484019,167.743203 706.272069,170.294429 C705.634409,175.184228 704.996847,179.861422 704.146612,184.538686 C703.083966,189.21585 701.808679,193.892949 700.533391,198.570245 C699.045661,203.034775 697.34542,207.711973 695.432473,212.176635 C693.519592,216.428564 691.394168,220.893193 689.056234,225.145253 C686.718268,229.184679 684.167793,233.436641 681.404808,237.2634 C678.641757,241.302892 675.666163,245.129618 672.690537,248.743743 C669.502368,252.570634 666.101822,255.972256 662.701111,259.373845 C660.575753,261.287258 658.662904,262.988036 656.537382,264.688748 C654.837109,266.177023 653.349345,267.452665 651.64894,268.940743 C647.823243,271.917162 643.997513,274.68098 639.746731,277.232229 C635.708426,279.78338 631.45771,282.334597 627.206863,284.460643 C622.743473,286.586624 618.280083,288.500004 613.816758,290.413449 C609.353368,292.114162 604.677502,293.602404 600.001471,294.878045 C595.325637,296.153588 590.437228,297.216628 585.761296,298.067 C580.87292,298.917735 575.984445,299.342576 571.308546,299.767844 C567.907868,299.980709 564.507255,300.192751 561.106544,300.192751 C556.21807,300.192751 551.329726,299.767844 546.653794,299.342016 C541.765385,298.917143 536.876878,298.278878 532.201011,297.215904 C527.312569,296.365169 522.636604,295.089857 517.960704,293.601779 L517.747899,293.601779 C522.423798,293.176905 527.099731,292.750979 531.775696,291.900935 C536.664039,291.050201 541.339939,289.987588 546.015904,288.711881 C550.69177,287.436306 555.36767,285.948064 559.831027,284.247318 C564.506893,282.546507 568.970316,280.420592 573.221164,278.29448 C577.684488,276.168433 581.722793,273.829916 585.973575,271.2787 C590.011815,268.514915 594.05012,265.751163 597.87585,262.774678 C601.701613,259.798324 605.314734,256.609369 608.715511,253.207747 C612.328699,250.018661 615.516769,246.404503 618.704904,242.790279 C621.892941,238.963586 624.868567,235.136761 627.631618,231.309937 C628.056407,230.672099 628.48215,229.821793 628.906938,229.183956 C631.032264,225.782334 633.157622,222.380744 635.07047,218.979089 C637.408469,214.727095 639.533926,210.475067 641.446741,206.01057 C643.359656,201.545941 645.059995,197.081279 646.547791,192.404147 C648.035522,187.939485 649.098234,183.262354 650.160979,178.585196 C651.01151,173.69537 651.861252,169.018101 652.28637,164.340943 C652.711126,159.451163 653.136835,154.561335 653.136835,149.884184 C653.136835,146.482535 652.923701,143.080972 652.712145,139.679406 C652.287357,134.789621 651.649401,130.112344 651.011806,125.435183 C650.161275,120.545361 649.098958,115.86821 647.823638,111.190927 C646.33594,106.726393 644.848077,102.049153 643.147804,97.5846257 C641.447366,93.1199704 639.322074,88.6553612 637.196552,84.4033303 C634.858618,80.1513422 632.520718,75.899354 629.970242,71.8599936 C627.207224,67.8206332 624.444108,63.9938182 621.468547,60.1669605 C618.28051,56.5527666 615.092374,52.9385793 611.691631,49.3243888 C609.991357,47.6236205 608.078443,45.7101916 606.165595,44.0094332 C596.601286,36.5683849 586.611827,29.5525427 576.622467,23.1745901 C575.134703,22.3238753 573.859449,21.6863739 572.371619,21.0485368 C565.357721,16.5839999 558.768973,14.2453223 552.180258,12.1182063 L552.179896,12.1182063 Z" id="Shape"></path>
        </g>
    </g>
</svg>